<svg xmlns="http://www.w3.org/2000/svg" width="36" height="36" viewBox="0 0 36 36">
  <g id="Group_2411" data-name="Group 2411" transform="translate(-1326 -375)">
    <rect id="Rectangle_2098" data-name="Rectangle 2098" width="36" height="36" rx="8" transform="translate(1326 375)" fill="#edeff3"/>
    <path id="Icon_awesome-eye" data-name="Icon awesome-eye" d="M19.879,10.968A11.1,11.1,0,0,0,10,4.5,11.1,11.1,0,0,0,.121,10.968a1.232,1.232,0,0,0,0,1.064A11.1,11.1,0,0,0,10,18.5a11.1,11.1,0,0,0,9.879-6.468A1.232,1.232,0,0,0,19.879,10.968ZM10,16.75A5.13,5.13,0,0,1,5,11.5a5.13,5.13,0,0,1,5-5.25,5.13,5.13,0,0,1,5,5.25A5.127,5.127,0,0,1,10,16.75ZM10,8a3.164,3.164,0,0,0-.879.138,1.81,1.81,0,0,1-.163,2.268,1.6,1.6,0,0,1-2.16.172,3.58,3.58,0,0,0,1.357,3.815,3.2,3.2,0,0,0,3.876-.129,3.6,3.6,0,0,0,1.125-3.9A3.342,3.342,0,0,0,10,8Z" transform="translate(1334 381.5)" fill="#8f94a7"/>
  </g>
</svg>
