<svg id="Group_2374" data-name="Group 2374" xmlns="http://www.w3.org/2000/svg" width="20" height="14" viewBox="0 0 20 14">
  <path id="FontAwsome_arrow-left_" data-name="FontAwsome (arrow-left)" d="M8.118,50.633l-.7.707a.755.755,0,0,1-1.075,0L.174,45.149a.764.764,0,0,1,0-1.08l6.165-6.194a.755.755,0,0,1,1.075,0l.7.707a.768.768,0,0,1-.013,1.093L4.284,43.333H13.4a.761.761,0,0,1,.761.765v1.02a.761.761,0,0,1-.761.765H4.284L8.105,49.54A.763.763,0,0,1,8.118,50.633Z" transform="translate(5.84 -37.565)" fill="#8f94a7"/>
  <rect id="Rectangle_2113" data-name="Rectangle 2113" width="2.5" height="14" rx="1" fill="#8f94a7"/>
</svg>
