<svg id="Group_2375" data-name="Group 2375" xmlns="http://www.w3.org/2000/svg" width="36" height="36" viewBox="0 0 36 36">
  <rect id="Rectangle_2112" data-name="Rectangle 2112" width="36" height="36" rx="8" fill="none"/>
  <g id="Group_2374" data-name="Group 2374" transform="translate(8 11)">
    <path id="FontAwsome_arrow-left_" data-name="FontAwsome (arrow-left)" d="M5.992,50.633l.7.707a.755.755,0,0,0,1.075,0l6.165-6.191a.764.764,0,0,0,0-1.08L7.771,37.875a.756.756,0,0,0-1.075,0l-.7.707A.768.768,0,0,0,6,39.675l3.822,3.658H.711A.761.761,0,0,0-.05,44.1v1.02a.761.761,0,0,0,.761.765H9.826L6,49.54A.763.763,0,0,0,5.992,50.633Z" transform="translate(5.84 -37.565)" fill="#8f94a7"/>
    <rect id="Rectangle_2113" data-name="Rectangle 2113" width="2.5" height="14" rx="1" fill="#8f94a7"/>
  </g>
</svg>
