<svg xmlns="http://www.w3.org/2000/svg" width="20" height="14" viewBox="0 0 20 14">
  <path id="Icon_awesome-eye" data-name="Icon awesome-eye" d="M19.879,10.968A11.1,11.1,0,0,0,10,4.5,11.1,11.1,0,0,0,.121,10.968a1.232,1.232,0,0,0,0,1.064A11.1,11.1,0,0,0,10,18.5a11.1,11.1,0,0,0,9.879-6.468A1.232,1.232,0,0,0,19.879,10.968ZM10,16.75A5.13,5.13,0,0,1,5,11.5a5.13,5.13,0,0,1,5-5.25,5.13,5.13,0,0,1,5,5.25A5.127,5.127,0,0,1,10,16.75ZM10,8a3.164,3.164,0,0,0-.879.138,1.81,1.81,0,0,1-.163,2.268,1.6,1.6,0,0,1-2.16.172,3.58,3.58,0,0,0,1.357,3.815,3.2,3.2,0,0,0,3.876-.129,3.6,3.6,0,0,0,1.125-3.9A3.342,3.342,0,0,0,10,8Z" transform="translate(0 -4.5)" fill="#1a1a1a"/>
</svg>
