<svg xmlns="http://www.w3.org/2000/svg" width="32" height="32" viewBox="0 0 32 32">
  <path id="Icon_weather-stars" data-name="Icon weather-stars" d="M6.444,25.107A3.9,3.9,0,0,0,9.185,23.85a3.958,3.958,0,0,0,1.13-2.816,3.942,3.942,0,0,0,1.113,2.816,3.9,3.9,0,0,0,2.741,1.257,3.9,3.9,0,0,0-2.741,1.257,3.942,3.942,0,0,0-1.113,2.816,3.889,3.889,0,0,0-1.13-2.816A3.9,3.9,0,0,0,6.444,25.107Zm3.871-12.069a7.607,7.607,0,0,0,5.333-2.464,7.709,7.709,0,0,0,2.193-5.5,7.709,7.709,0,0,0,2.193,5.5,7.682,7.682,0,0,0,5.35,2.464,7.653,7.653,0,0,0-3.8,1.19,8.025,8.025,0,0,0-2.741,2.9,7.937,7.937,0,0,0-1,3.906,7.748,7.748,0,0,0-2.193-5.515A7.558,7.558,0,0,0,10.315,13.038Zm5.516,18.053a5.7,5.7,0,0,0,4.021-1.844,5.8,5.8,0,0,0,1.645-4.14,5.8,5.8,0,0,0,1.645,4.14,5.661,5.661,0,0,0,4,1.844,5.661,5.661,0,0,0-4,1.844,5.8,5.8,0,0,0-1.645,4.14,5.964,5.964,0,0,0-5.666-5.984Zm11.315-7.946a5.661,5.661,0,0,0,4-1.844,5.8,5.8,0,0,0,1.628-4.157,5.8,5.8,0,0,0,1.645,4.14,5.7,5.7,0,0,0,4.021,1.844,5.7,5.7,0,0,0-4.021,1.844,5.8,5.8,0,0,0-1.645,4.14,5.855,5.855,0,0,0-1.628-4.14A5.711,5.711,0,0,0,27.146,23.146Z" transform="translate(-6.444 -5.076)" fill="#8f94a7"/>
</svg>
